<svg width="13" height="14" fill="none" xmlns="http://www.w3.org/2000/svg"><path fill-rule="evenodd" clip-rule="evenodd" d="M7.79268 8.2638c-1.43193 1.43192-3.75353 1.43192-5.18545 0-1.43193-1.43192-1.43193-3.75353 0-5.18545 1.43192-1.43192 3.75352-1.43192 5.18545 0 1.43192 1.43192 1.43192 3.75353 0 5.18545Zm.44038 1.38296c-1.96023 1.49944-4.77582 1.35264-6.56864-.44015-1.952624-1.95262-1.952624-5.11845 0-7.07107 1.95262-1.952622 5.11844-1.952622 7.07107 0 1.79271 1.79275 1.93951 4.60817.44035 6.56838l3.56666 3.56668-.9428.9428-3.56664-3.56664Z" fill="#959595"/></svg>